<svg xmlns="http://www.w3.org/2000/svg" width="18.346" height="21.5" viewBox="0 0 18.346 21.5">
  <g id="그룹_170" data-name="그룹 170" transform="translate(-221.75 -496.75)">
    <g id="그룹_159" data-name="그룹 159" transform="translate(222 497)">
      <path id="패스_597" data-name="패스 597" d="M-805.594,99.388c-4.434,0-8.923-.965-8.923-2.81s4.489-2.81,8.923-2.81,8.923.965,8.923,2.81S-801.16,99.388-805.594,99.388Zm0-4.709c-5.26,0-8.011,1.236-8.011,1.9s2.751,1.9,8.011,1.9,8.012-1.236,8.012-1.9S-800.334,94.679-805.594,94.679Z" transform="translate(814.517 -93.767)" fill="#292929" stroke="#292929" stroke-width="0.5"/>
      <path id="패스_598" data-name="패스 598" d="M-805.594,121.564c-4.434,0-8.923-.965-8.923-2.81v-2.517a.456.456,0,0,1,.456-.456.456.456,0,0,1,.456.456v2.517c0,.663,2.751,1.9,8.011,1.9s8.012-1.236,8.012-1.9v-2.517a.456.456,0,0,1,.456-.456.456.456,0,0,1,.456.456v2.517C-796.671,120.6-801.16,121.564-805.594,121.564Z" transform="translate(814.517 -110.764)" fill="#292929" stroke="#292929" stroke-width="0.5"/>
      <path id="패스_599" data-name="패스 599" d="M-805.594,143.944c-4.434,0-8.923-.965-8.923-2.81v-2.518a.456.456,0,0,1,.456-.456.456.456,0,0,1,.456.456v2.518c0,.663,2.751,1.9,8.011,1.9s8.012-1.236,8.012-1.9v-2.518a.456.456,0,0,1,.456-.456.456.456,0,0,1,.456.456v2.518C-796.671,142.979-801.16,143.944-805.594,143.944Z" transform="translate(814.517 -128.044)" fill="#292929" stroke="#292929" stroke-width="0.5"/>
      <path id="패스_600" data-name="패스 600" d="M-805.594,166.325c-4.434,0-8.923-.965-8.923-2.81V161a.456.456,0,0,1,.456-.456.456.456,0,0,1,.456.456v2.517c0,.663,2.751,1.9,8.011,1.9s8.012-1.236,8.012-1.9V161a.456.456,0,0,1,.456-.456.456.456,0,0,1,.456.456v2.517C-796.671,165.359-801.16,166.325-805.594,166.325Z" transform="translate(814.517 -145.325)" fill="#292929" stroke="#292929" stroke-width="0.5"/>
      <path id="패스_601" data-name="패스 601" d="M-776.937,125.734a.66.66,0,0,1-.66.66.66.66,0,0,1-.66-.66.66.66,0,0,1,.66-.66A.66.66,0,0,1-776.937,125.734Z" transform="translate(786.52 -117.94)" fill="#292929" stroke="#292929" stroke-width="0.5"/>
      <path id="패스_602" data-name="패스 602" d="M-788.937,124.734a.66.66,0,0,1-.66.66.66.66,0,0,1-.66-.66.66.66,0,0,1,.66-.66A.66.66,0,0,1-788.937,124.734Z" transform="translate(795.785 -117.168)" fill="#292929" stroke="#292929" stroke-width="0.5"/>
      <path id="패스_603" data-name="패스 603" d="M-766.257,124.734a.66.66,0,0,0,.66.66.66.66,0,0,0,.66-.66.66.66,0,0,0-.66-.66A.66.66,0,0,0-766.257,124.734Z" transform="translate(777.255 -117.168)" fill="#292929" stroke="#292929" stroke-width="0.5"/>
      <path id="패스_604" data-name="패스 604" d="M-776.937,148.614a.66.66,0,0,1-.66.66.66.66,0,0,1-.66-.66.66.66,0,0,1,.66-.66A.66.66,0,0,1-776.937,148.614Z" transform="translate(786.52 -135.606)" fill="#292929" stroke="#292929" stroke-width="0.5"/>
      <path id="패스_605" data-name="패스 605" d="M-788.937,147.614a.66.66,0,0,1-.66.66.66.66,0,0,1-.66-.66.66.66,0,0,1,.66-.66A.66.66,0,0,1-788.937,147.614Z" transform="translate(795.785 -134.834)" fill="#292929" stroke="#292929" stroke-width="0.5"/>
      <path id="패스_606" data-name="패스 606" d="M-766.257,147.614a.66.66,0,0,0,.66.66.66.66,0,0,0,.66-.66.66.66,0,0,0-.66-.66A.66.66,0,0,0-766.257,147.614Z" transform="translate(777.255 -134.834)" fill="#292929" stroke="#292929" stroke-width="0.5"/>
      <path id="패스_607" data-name="패스 607" d="M-776.937,170.994a.66.66,0,0,1-.66.66.66.66,0,0,1-.66-.66.66.66,0,0,1,.66-.66A.66.66,0,0,1-776.937,170.994Z" transform="translate(786.52 -152.886)" fill="#292929" stroke="#292929" stroke-width="0.5"/>
      <path id="패스_608" data-name="패스 608" d="M-788.937,169.994a.66.66,0,0,1-.66.66.66.66,0,0,1-.66-.66.66.66,0,0,1,.66-.66A.66.66,0,0,1-788.937,169.994Z" transform="translate(795.785 -152.114)" fill="#292929" stroke="#292929" stroke-width="0.5"/>
      <path id="패스_609" data-name="패스 609" d="M-766.257,169.994a.66.66,0,0,0,.66.66.66.66,0,0,0,.66-.66.66.66,0,0,0-.66-.66A.66.66,0,0,0-766.257,169.994Z" transform="translate(777.255 -152.114)" fill="#292929" stroke="#292929" stroke-width="0.5"/>
    </g>
  </g>
</svg>
